<svg xmlns="http://www.w3.org/2000/svg">
  <defs>

    <symbol id="arrow-down" viewBox="0 0 512.01 277.34">
      <path d="M505.75,6.26a21.29,21.29,0,0,0-30.16,0L256,225.84,36.42,6.26A21.33,21.33,0,0,0,6.26,36.42L240.92,271.09a21.33,21.33,0,0,0,30.17,0L505.76,36.42A21.3,21.3,0,0,0,505.75,6.26Z"/>
    </symbol>

    <symbol id="username" viewBox="0 0 448 512">
      <path d="M224 256c70.7 0 128-57.3 128-128S294.7 0 224 0 96 57.3 96 128s57.3 128 128 128zm89.6 32h-16.7c-22.2 10.2-46.9 16-72.9 16s-50.6-5.8-72.9-16h-16.7C60.2 288 0 348.2 0 422.4V464c0 26.5 21.5 48 48 48h352c26.5 0 48-21.5 48-48v-41.6c0-74.2-60.2-134.4-134.4-134.4z"></path>
    </symbol>

    <symbol id="locker" viewBox="0 0 448 512">
      <path d="M400 224h-24v-72C376 68.2 307.8 0 224 0S72 68.2 72 152v72H48c-26.5 0-48 21.5-48 48v192c0 26.5 21.5 48 48 48h352c26.5 0 48-21.5 48-48V272c0-26.5-21.5-48-48-48zm-104 0H152v-72c0-39.7 32.3-72 72-72s72 32.3 72 72v72z"></path>
    </symbol>

  </defs>
</svg>